<?xml version="1.0" encoding="UTF-8"?>
<!DOCTYPE svg PUBLIC "-//W3C//DTD SVG 1.1//EN" "http://www.w3.org/Graphics/SVG/1.1/DTD/svg11.dtd">
<!-- Creator: CorelDRAW X8 -->
<svg xmlns="http://www.w3.org/2000/svg" xml:space="preserve" width="205.317mm" height="62.7944mm" version="1.1" style="shape-rendering:geometricPrecision; text-rendering:geometricPrecision; image-rendering:optimizeQuality; fill-rule:evenodd; clip-rule:evenodd"
viewBox="0 0 20532 6279"
 xmlns:xlink="http://www.w3.org/1999/xlink">
 <defs>
  <style type="text/css">
   <![CDATA[
    .fil3 {fill:#E39B00}
    .fil0 {fill:white}
    .fil2 {fill:#332C2B;fill-rule:nonzero}
    .fil1 {fill:#FAC105;fill-rule:nonzero}
    .fil4 {fill:black;fill-rule:nonzero}
    .fil5 {fill:#0B9444;fill-rule:nonzero}
   ]]>
  </style>
 </defs>
 <g id="Layer_x0020_1">
  <metadata id="CorelCorpID_0Corel-Layer"/>
  <path class="fil0" d="M13578 4950c10,-2 20,-2 30,-2l190 0c140,0 254,114 254,254l0 411 360 0c140,0 254,114 254,254l0 154c0,140 -114,254 -254,254l-804 0c-140,0 -254,-114 -254,-254l0 -819c0,-122 86,-224 200,-248 -358,59 -714,101 -1071,127l467 814c46,80 46,173 0,253 -47,81 -127,127 -220,127l-215 0c-95,0 -176,-48 -222,-132l-26 -47 -216 0 -24 44c-45,85 -128,135 -224,135l-191 0c-93,0 -173,-46 -219,-126 -47,-80 -48,-172 -2,-253l445 -786c-297,5 -594,-1 -894,-18 69,86 91,197 91,307 0,39 -9,76 -24,109 25,64 35,135 35,207l0 112c0,128 -31,255 -129,344 -92,81 -212,104 -330,104l-506 0c-131,0 -264,-27 -355,-129 -84,-94 -104,-220 -104,-341 0,-59 19,-113 53,-157 -14,-52 -20,-107 -20,-162l0 -90c0,-127 30,-254 127,-342 31,-29 65,-50 102,-66 -332,-45 -668,-103 -1010,-173 -1690,-346 -3415,-644 -5146,-593 -1160,35 -2282,225 -3407,505 -133,33 -269,-46 -306,-178 -37,-132 38,-270 169,-311 193,-60 387,-116 581,-168 -23,-7 -45,-16 -67,-26 -125,-54 -238,-132 -324,-237 -84,-101 -138,-218 -163,-347 -23,-120 -22,-242 -3,-363 20,-121 56,-239 105,-351 51,-116 116,-226 192,-328 77,-102 165,-195 263,-277 59,-50 122,-95 188,-134 9,-77 24,-153 44,-228 38,-141 96,-275 169,-401 80,-138 180,-264 292,-378 126,-130 271,-241 425,-336 176,-108 368,-193 564,-261 231,-79 473,-131 714,-166 2,-1 3,-1 5,-1 55,-7 110,-13 166,-18 32,-3 65,-5 97,-7 61,-33 124,-62 187,-89 90,-37 183,-68 277,-94 124,-33 251,29 301,146 20,48 25,99 16,146 25,12 49,25 72,39 145,87 262,208 323,367 56,151 59,309 20,464 -37,151 -106,290 -194,417 -70,100 -152,191 -242,272 90,51 171,115 238,195 73,86 126,183 156,289 76,-92 168,-169 273,-228 125,-70 264,-104 408,-100 127,4 256,35 352,123 43,40 76,86 98,137 50,-40 104,-75 162,-104 129,-65 269,-94 412,-83 127,9 254,45 347,137 90,91 131,212 116,340 -1,8 -2,16 -3,24 31,10 60,25 86,44 54,40 91,97 107,162 22,90 -2,183 -64,250 -10,13 -21,29 -31,43 -30,43 -62,85 -95,127 -41,53 -86,104 -133,153 -55,59 -116,112 -181,159 -71,50 -148,92 -230,122 -25,10 -51,18 -77,24 60,6 120,12 180,19 374,41 746,94 1116,154 -77,-99 -130,-213 -165,-334 -44,-157 -43,-323 -20,-483 20,-140 61,-276 116,-407 57,-135 128,-263 210,-385 85,-125 181,-244 283,-356 40,-44 82,-87 124,-128 -23,-27 -44,-55 -63,-85 -87,-129 -131,-274 -136,-429 -5,-129 26,-253 92,-364 60,-103 142,-188 242,-253 100,-65 212,-104 331,-119 136,-17 268,9 390,70 97,49 150,147 139,255 -12,107 -86,192 -190,219 -39,9 -83,24 -117,47 -21,15 -44,34 -59,56 -11,17 -20,35 -25,55 -3,16 -6,34 -4,50 1,6 2,12 2,17 71,-46 144,-89 218,-130 156,-87 319,-162 487,-223 159,-57 324,-99 491,-122 162,-22 326,-22 487,9 177,34 375,94 507,222 130,125 191,289 150,466 0,3 -1,5 -1,7 -28,106 -77,202 -144,286 36,16 69,35 100,59 43,32 79,70 109,114 40,61 63,130 63,204 0,1 0,3 0,5 -2,109 -26,216 -66,318 -39,97 -89,190 -146,278 -59,88 -123,173 -192,252 -46,53 -94,105 -142,155 1,0 2,0 3,0 3,1 6,1 9,1 80,-98 177,-179 289,-239 126,-69 265,-101 409,-94 127,6 255,38 350,128 36,34 64,72 85,114 61,-57 129,-105 204,-143 110,-57 230,-83 353,-86 4,0 7,0 10,0 80,1 156,22 222,61 12,-7 24,-14 37,-21 111,-60 234,-86 360,-92 19,-1 37,1 55,4 96,-40 195,-24 286,20 61,30 116,70 166,115 3,3 6,6 9,9 45,-56 95,-107 151,-151 76,-58 162,-98 257,-112 68,-11 136,-4 201,19 65,22 123,60 170,111 44,47 76,102 98,162 14,41 22,82 24,124 41,-22 86,-36 133,-39 73,-4 144,20 200,67 79,67 110,168 93,269 -4,20 -9,39 -17,59 -5,14 -10,29 -16,43 -19,47 -39,94 -60,140 -28,62 -60,122 -93,181 -39,69 -82,135 -132,198 -50,64 -107,122 -171,173 -22,17 -44,33 -68,46 406,-73 809,-162 1211,-263 47,-12 94,-9 137,4 22,-114 57,-226 105,-333 1,0 1,-1 1,-1 105,-229 268,-425 471,-570 -402,-162 -765,-424 -1062,-752 -216,-239 -415,-535 -521,-842 -88,-256 -125,-579 72,-797 83,-92 186,-142 296,-163 78,-470 474,-643 945,-407 764,383 1205,1249 1444,2030 15,46 15,94 4,137 188,-327 523,-561 914,-610 23,-11 46,-22 68,-34 42,-22 82,-45 123,-69 44,-26 88,-55 130,-85 22,-15 44,-31 65,-47 21,-16 43,-32 63,-50 13,-10 25,-20 38,-31 11,-9 22,-19 32,-29 22,-18 42,-39 63,-58 20,-19 39,-40 58,-60 18,-19 36,-40 54,-60 16,-20 34,-40 50,-61 15,-21 32,-42 46,-63 15,-21 30,-42 44,-64 13,-22 27,-43 39,-65 12,-22 24,-44 35,-65 10,-20 20,-41 30,-62 1,-1 1,-3 2,-4 7,-14 13,-29 19,-43 -29,-65 -38,-140 -23,-214 40,-189 226,-309 415,-269 188,40 309,226 269,414 -21,96 -79,174 -156,223 -3,9 -7,19 -10,28 0,2 -1,3 -2,5 -9,27 -18,53 -29,79 -10,24 -20,49 -30,72 -1,3 -2,6 -4,9 -11,25 -23,49 -35,74 0,2 -1,3 -2,5 -14,28 -29,55 -44,83 -16,30 -34,59 -51,88 -18,31 -38,59 -57,88 -1,2 -2,3 -3,5 -19,28 -40,56 -60,84 -2,3 -5,5 -7,9 -1,1 -2,2 -3,4 9,0 18,0 27,0 37,0 73,3 109,5 2,0 4,0 5,0 35,2 70,7 104,10 5,1 9,1 13,2 32,5 65,10 97,15 5,1 9,2 13,3 31,7 61,13 91,20 4,1 7,2 11,3 28,8 56,16 83,24 6,1 10,2 15,4 26,9 53,18 79,28 27,9 53,21 79,32 29,11 57,25 85,39 9,5 19,9 29,14 91,-18 189,-1 271,57 157,111 195,330 83,487 -111,157 -329,195 -486,84 -61,-43 -104,-102 -127,-167 -12,-5 -25,-10 -37,-15 -21,-6 -42,-15 -62,-21 -23,-7 -46,-13 -68,-19 -24,-5 -47,-10 -70,-16 -24,-4 -48,-7 -72,-11 -24,-3 -49,-5 -74,-8 -25,-1 -50,-3 -75,-3 -25,0 -52,-1 -77,1 -2,0 -4,0 -6,0 -15,1 -31,1 -46,2 -13,1 -25,3 -38,4 191,217 306,501 306,812 0,419 -212,807 -562,1035 -39,25 -78,38 -124,40 -11,1 -23,2 -35,2 -31,44 -76,78 -131,96 -119,39 -242,59 -367,60 3,38 4,76 4,114 0,24 0,49 -2,73 0,1 0,1 0,2 -14,275 -107,539 -268,762 0,1 0,1 -1,1 -196,273 -483,469 -810,552 0,0 0,0 -1,0 -115,29 -233,44 -351,44 -223,0 -440,-52 -637,-150l-572 502c-97,85 -240,84 -336,-1 -96,-86 -114,-227 -41,-334l422 -615c-131,-182 -217,-390 -252,-611 -640,206 -1263,359 -1879,463zm-9574 -1336c240,-7 479,-8 719,-4 -15,-6 -30,-12 -45,-20 -69,-34 -133,-79 -184,-138 -43,-50 -78,-105 -102,-167 -4,-10 -8,-20 -11,-31 -87,118 -191,220 -307,309 -23,18 -46,35 -70,51zm1174 10c164,7 328,17 492,29 -11,-5 -21,-10 -31,-16 -68,-37 -129,-85 -178,-145 -3,-4 -5,-7 -8,-11 -64,48 -132,87 -205,118 -23,9 -46,18 -70,25zm3807 529c172,32 345,65 518,95 -18,-12 -35,-25 -51,-38 -80,-65 -128,-153 -155,-249 -94,77 -198,140 -308,190 -2,0 -3,1 -4,2zm933 165c226,35 453,64 679,87 -68,-35 -130,-81 -180,-140 -43,-50 -77,-106 -100,-168 0,-1 0,-1 0,-2 -38,33 -78,63 -120,91 -70,47 -145,87 -225,115 -18,7 -36,12 -54,17zm1181 129c174,10 347,17 521,21 -37,-16 -73,-37 -106,-62 -42,-32 -79,-71 -109,-116 -1,-1 -1,-2 -2,-3 -3,3 -6,5 -8,7 -70,53 -146,96 -227,129 -23,9 -46,17 -69,24zm985 21c27,-1 54,-2 81,-2 -12,-6 -23,-13 -35,-21 -15,8 -30,16 -46,23zm490 -20c68,-4 136,-9 204,-14 121,-9 242,-21 362,-34 -18,-6 -35,-13 -52,-22 -60,-30 -114,-70 -163,-116 -15,-14 -29,-29 -43,-44 -61,61 -127,117 -199,167 -35,24 -71,45 -109,63zm870 -84c103,-14 207,-28 309,-44 -62,-14 -121,-41 -173,-84 -16,-14 -31,-29 -45,-44 -7,70 -40,130 -91,172zm3722 -1960c-1,1 -3,3 -4,4 0,1 0,2 1,2 1,-2 2,-4 3,-6zm-7287 -146c-140,24 -281,37 -423,39 -158,2 -314,-9 -470,-33 -100,-16 -200,-37 -297,-66 -58,53 -113,109 -167,166 -80,86 -155,177 -222,273 -60,87 -114,178 -158,274 -36,78 -64,160 -77,244 -13,88 -20,181 -11,269 6,54 18,114 42,164 15,28 33,56 59,76 20,16 41,26 67,31 52,10 105,11 158,4 58,-6 114,-22 167,-46 59,-27 113,-62 162,-104 52,-44 96,-97 132,-155 42,-68 71,-143 90,-219 25,-93 30,-192 25,-288 -5,-105 51,-198 147,-242 95,-44 202,-28 280,44 50,47 97,98 137,153 43,-89 90,-175 141,-260 67,-112 139,-221 218,-324zm-7612 -117c32,-109 63,-218 93,-327 49,-180 109,-356 178,-528 39,-95 82,-188 130,-278 -22,11 -43,22 -65,33 -111,60 -218,130 -318,207 -98,76 -187,161 -267,255 -78,92 -144,193 -197,301 -10,19 -18,38 -27,57 94,16 186,44 267,89 85,49 156,112 206,191zm-1186 1390c-2,-1 -3,-2 -5,-3 -29,-15 -54,-36 -74,-59 1,2 2,4 3,6 8,22 18,38 39,51 7,4 22,6 37,5zm-69 -399c28,-29 63,-52 103,-66 33,-11 64,-30 92,-50 23,-17 45,-35 67,-54 -50,-38 -95,-83 -134,-135 -41,69 -75,141 -101,217 -10,29 -19,58 -27,88zm1903 -320c-1,2 -2,4 -2,6 -36,100 -76,198 -121,294 -28,61 -59,121 -91,179 98,2 197,-4 294,-17 93,-13 182,-39 267,-79 82,-39 159,-87 227,-147 63,-54 119,-115 166,-185 37,-56 68,-118 86,-184 13,-49 17,-98 9,-148 -5,-33 -19,-59 -43,-83 -38,-40 -99,-68 -150,-86 -11,-4 -22,-8 -34,-11 29,74 22,158 -24,229 -24,39 -53,74 -86,105 -29,29 -62,53 -97,75 -54,34 -114,54 -177,62 -50,6 -101,6 -151,1 -25,-3 -49,-6 -73,-11zm351 -1129c31,-18 61,-40 88,-61 62,-47 120,-100 174,-156 58,-60 112,-125 161,-193 43,-60 82,-125 112,-192 23,-51 41,-106 49,-162 2,-15 3,-36 -4,-51 -5,-10 -34,-27 -43,-32 -24,-12 -55,-20 -87,-25 -56,65 -106,135 -151,209 -70,114 -131,234 -183,357 -43,100 -81,202 -116,306zm6088 23c14,-1 29,-2 43,-2 107,-7 213,-23 317,-49 94,-24 187,-55 274,-98 64,-31 127,-70 179,-120 9,-8 19,-18 28,-30 -46,-2 -95,3 -136,10 -120,22 -239,62 -351,109 -122,52 -240,113 -354,180zm-7087 3901c0,237 -98,440 -302,566 -135,85 -313,102 -470,102l-478 0c-140,0 -254,-114 -254,-254l0 -819c0,-140 114,-254 254,-254l527 0c176,0 350,39 490,149 161,126 233,308 233,510zm-705 -5c-6,0 -12,0 -16,0l-84 0 0 11c25,0 69,-2 100,-7 0,-1 0,-2 0,-3 0,0 0,0 0,-1zm1605 673l-191 0c-140,0 -254,-114 -254,-254l0 -819c0,-140 114,-254 254,-254l191 0c140,0 254,114 254,254l0 819c0,140 -114,254 -254,254zm805 -627c-14,-52 -20,-107 -20,-162l0 -90c0,-127 30,-254 127,-342 91,-83 212,-106 331,-106l465 0c121,0 244,24 335,110 94,89 122,215 122,341 0,39 -9,76 -24,109 26,64 35,135 35,207l0 112c0,128 -30,255 -129,344 -91,81 -211,104 -330,104l-506 0c-131,0 -264,-27 -355,-129 -83,-94 -104,-220 -104,-341 0,-59 20,-113 53,-157zm2568 308l0 65c0,140 -114,254 -254,254l-187 0c-140,0 -254,-114 -254,-254l0 -819c0,-140 114,-254 254,-254l701 0c251,0 439,154 439,413l0 182c0,259 -188,413 -439,413l-260 0zm2599 -129c0,127 -30,254 -127,342 -91,83 -211,106 -330,106l-604 0c-119,0 -239,-23 -330,-106 -97,-88 -127,-215 -127,-342l0 -431c0,-127 30,-254 127,-342 91,-83 211,-106 330,-106l604 0c119,0 239,23 330,106 97,88 127,215 127,342l0 431zm-699 -214l0 -11 -120 0 0 11 120 0z"/>
  <path class="fil1" d="M15160 811c-1299,-331 7,2409 1997,2196 0,0 -699,-1866 -1997,-2196z"/>
  <path class="fil1" d="M15306 725c777,198 1339,946 1666,1515 -193,-629 -583,-1510 -1316,-1878 -394,-197 -584,-10 -590,337 67,-5 147,2 240,26z"/>
  <path class="fil1" d="M17119 2933c5,1 11,2 17,3 0,0 0,-1 0,-3 -6,0 -12,0 -17,0z"/>
  <path class="fil2" d="M18646 2670c0,120 -97,217 -217,217 -120,0 -217,-97 -217,-217 0,-120 97,-217 217,-217 120,0 217,97 217,217z"/>
  <path class="fil2" d="M18578 2263c249,0 451,202 451,451 0,249 -202,451 -451,451 -249,0 -451,-202 -451,-451 0,-249 202,-451 451,-451zm-330 1281c0,0 104,221 572,193 269,-175 447,-477 447,-822 0,-540 -438,-979 -979,-979 -541,0 -979,439 -979,979 0,541 438,979 979,979 106,0 207,-17 303,-48 -125,-36 -261,-119 -343,-302z"/>
  <path class="fil2" d="M18051 4324c1,-21 1,-41 1,-62 0,-638 -506,-1157 -1139,-1178 134,388 440,928 1138,1240z"/>
  <path class="fil1" d="M15800 3771c-68,150 -107,316 -107,491 0,320 128,609 334,821l-530 774 709 -622c189,130 419,207 667,207 100,0 196,-13 289,-36 -1060,-398 -1307,-1305 -1362,-1635z"/>
  <path class="fil1" d="M16913 3084c-13,-1 -27,-1 -40,-1 -200,0 -388,49 -552,137 39,289 268,1344 1509,1731 129,-178 209,-394 221,-627 -698,-312 -1004,-852 -1138,-1240z"/>
  <path class="fil2" d="M16321 3220c-229,121 -413,315 -521,551 55,330 302,1237 1362,1635 273,-69 508,-233 668,-455 -1241,-387 -1470,-1442 -1509,-1731z"/>
  <path class="fil2" d="M18178 2072c0,0 2,-1 6,-3 3,-2 9,-6 16,-10 14,-7 34,-18 61,-31 26,-13 58,-28 94,-45 37,-16 79,-34 126,-51 46,-18 97,-35 151,-52 55,-16 112,-32 173,-45 60,-14 123,-25 187,-34 64,-8 130,-15 196,-17 16,0 33,-1 49,-1 16,0 33,0 49,0 33,0 66,3 98,4 32,2 64,7 95,10 32,5 63,10 93,15 30,7 60,13 88,20 29,8 57,15 84,23 26,9 52,18 77,27 25,9 48,20 71,29 22,9 43,19 63,29 20,10 39,19 56,29 35,20 65,36 89,52 47,31 74,50 74,50l-3 4c0,0 -28,-16 -77,-45 -24,-14 -55,-28 -90,-46 -18,-9 -37,-16 -57,-25 -20,-9 -42,-18 -65,-26 -22,-7 -46,-17 -70,-24 -25,-7 -51,-14 -78,-22 -26,-6 -54,-12 -82,-18 -28,-5 -58,-9 -87,-14 -30,-3 -60,-6 -91,-9 -30,-1 -61,-4 -93,-4 -31,0 -62,-1 -94,1 -16,1 -32,2 -48,3 -15,1 -31,2 -47,4 -63,5 -126,16 -187,27 -62,13 -122,26 -179,43 -57,16 -111,35 -162,54 -51,19 -99,38 -142,58 -44,19 -83,38 -117,56 -34,17 -63,33 -87,47 -24,14 -42,25 -54,32 -6,4 -11,7 -14,9 -3,2 -4,3 -4,3l-68 -107z"/>
  <path class="fil2" d="M20113 2148c43,31 103,20 133,-23 30,-43 20,-102 -23,-132 -43,-31 -102,-21 -133,22 -30,43 -20,103 23,133z"/>
  <path class="fil2" d="M18029 2009c0,0 2,0 6,-1 3,-2 8,-3 15,-6 13,-4 34,-12 59,-22 26,-10 57,-24 92,-40 35,-16 75,-35 117,-57 43,-22 88,-48 135,-76 47,-28 96,-60 145,-94 25,-17 49,-36 74,-54 25,-19 50,-38 74,-58 12,-10 24,-20 36,-31 12,-10 24,-21 36,-31 24,-21 47,-44 70,-66 24,-22 45,-46 68,-68 22,-24 43,-48 64,-71 20,-25 40,-49 59,-74 18,-25 37,-49 54,-74 17,-25 35,-49 50,-74 15,-25 30,-49 44,-73 13,-24 26,-48 39,-71 11,-23 22,-46 33,-68 11,-22 19,-43 28,-64 8,-20 17,-40 23,-58 13,-38 26,-70 34,-97 16,-55 25,-86 25,-86l5 1c0,0 -7,32 -20,88 -7,28 -18,61 -28,99 -6,19 -14,39 -21,60 -7,21 -14,44 -24,67 -10,22 -19,46 -29,71 -12,24 -23,48 -36,74 -12,25 -26,51 -40,77 -14,26 -30,52 -46,78 -16,27 -34,53 -51,79 -18,27 -38,52 -57,79 -20,25 -40,51 -61,77 -22,24 -42,50 -65,74 -23,24 -45,49 -69,72 -11,11 -23,23 -35,35 -12,11 -23,22 -35,33 -24,23 -49,43 -73,65 -24,20 -48,40 -73,60 -49,38 -97,74 -144,106 -48,32 -93,61 -136,87 -43,26 -83,47 -119,67 -36,19 -67,35 -94,47 -27,13 -48,22 -63,28 -7,3 -13,6 -17,7 -4,2 -6,3 -6,3l-43 -120z"/>
  <path class="fil2" d="M19503 620c11,-51 -22,-102 -73,-113 -52,-11 -102,22 -113,73 -11,52 22,103 73,113 52,11 102,-21 113,-73z"/>
  <path class="fil3" d="M258 4480c2088,-654 4169,-720 6025,-516 1352,149 2411,412 3493,588 2217,363 3971,101 5612,-309 -2340,754 -4334,759 -6465,323 -3545,-725 -5599,-848 -8665,-86z"/>
  <path class="fil4" d="M3954 269c-50,30 -96,60 -139,92 -44,32 -85,65 -124,99 196,11 347,48 455,112 108,64 180,144 216,239 36,95 40,199 12,312 -28,113 -80,224 -156,333 -75,109 -172,210 -289,302 -117,92 -245,164 -384,216 166,4 306,29 420,76 114,46 202,106 265,181 64,75 104,160 120,255 16,95 10,193 -18,295 -28,101 -77,202 -147,301 -70,99 -160,190 -268,274 -108,83 -234,154 -380,213 -145,59 -306,99 -485,120 -193,21 -362,17 -507,-12 -146,-28 -267,-72 -364,-131 -118,107 -258,191 -422,250 -165,59 -363,86 -596,83 -146,-3 -268,-26 -366,-68 -97,-43 -174,-98 -230,-165 -55,-68 -92,-146 -108,-233 -17,-88 -18,-179 -3,-275 15,-96 44,-192 87,-290 42,-97 96,-189 161,-277 66,-87 139,-165 223,-235 83,-71 172,-127 268,-169 0,-103 16,-210 45,-323 30,-112 78,-225 143,-338 65,-112 150,-222 253,-329 103,-107 229,-206 376,-296 147,-91 318,-171 513,-238 196,-68 418,-121 667,-157 56,-7 108,-13 157,-18 49,-4 98,-7 146,-8 66,-39 137,-75 213,-107 75,-32 157,-60 246,-84zm-2426 2543c-80,-26 -147,-80 -203,-161 -56,-81 -94,-179 -113,-296 -98,80 -182,173 -252,279 -71,106 -125,215 -163,327 -38,112 -60,220 -66,325 -6,106 6,197 35,276 29,79 77,138 145,180 67,41 154,52 262,34 181,-32 337,-83 466,-155 130,-73 242,-160 336,-263 -34,-51 -55,-101 -62,-153 -8,-51 -2,-99 16,-144 19,-44 51,-83 96,-115 46,-32 106,-56 180,-70 -56,35 -99,70 -129,106 -30,35 -49,70 -59,103 -10,34 -13,66 -9,98 4,32 12,60 23,86 1,4 3,10 7,16 99,-123 181,-262 245,-417 65,-154 121,-314 172,-482 50,-167 99,-336 146,-508 47,-172 103,-339 168,-501 65,-161 144,-313 238,-455 94,-142 213,-267 357,-375 -23,1 -47,3 -70,6 -24,3 -49,7 -75,10 -118,18 -241,48 -368,90 -126,42 -251,96 -374,162 -122,66 -240,143 -353,230 -112,87 -214,184 -305,292 -90,108 -167,225 -230,353 -63,127 -105,263 -126,407 14,-1 29,-2 44,-4 15,-1 29,-2 45,0 169,3 296,28 380,76 84,48 133,109 148,185 20,92 19,184 -3,274 -21,91 -56,176 -105,256 -49,80 -107,152 -175,216 -67,65 -137,117 -209,156 -72,40 -142,65 -211,76 -68,10 -128,1 -179,-28 52,-18 104,-46 157,-84 52,-38 103,-82 152,-133 49,-50 95,-105 138,-166 43,-61 80,-123 112,-186 32,-63 57,-127 74,-190 18,-63 27,-124 26,-180 0,-79 -20,-140 -60,-181 -40,-42 -109,-50 -207,-27 -45,13 -92,31 -140,53 -7,95 -4,193 8,292 12,100 35,204 70,310zm1239 -374c-30,99 -62,197 -96,292 -34,94 -70,185 -111,272 -41,88 -85,171 -134,249 -49,78 -104,150 -165,216 99,39 216,63 351,71 134,9 273,3 417,-16 121,-17 234,-51 340,-102 107,-51 201,-112 284,-184 83,-72 153,-151 211,-237 57,-86 97,-173 120,-260 22,-88 27,-172 14,-254 -14,-83 -51,-155 -110,-217 -59,-62 -142,-112 -249,-150 -107,-38 -242,-55 -406,-53 -10,0 -20,0 -29,1 -9,1 -17,3 -26,3l-110 29c-71,28 -126,66 -164,116 -37,49 -53,96 -45,140 4,24 14,46 29,65 15,18 33,34 53,48 21,13 43,23 67,31 23,8 46,11 69,10 25,0 50,-3 75,-11 24,-7 46,-15 65,-24 22,-10 44,-21 66,-33 -14,21 -30,40 -48,58 -16,15 -35,29 -56,43 -22,14 -46,22 -74,26 -30,3 -61,4 -93,0 -33,-3 -66,-10 -96,-20 -32,-10 -60,-25 -86,-43 -25,-18 -46,-40 -63,-66zm840 -1896c-101,104 -190,218 -265,342 -75,124 -142,254 -199,391 -58,136 -109,277 -155,421 -45,144 -89,289 -130,433 38,-26 81,-49 129,-68 48,-20 100,-36 154,-50l170 -74c60,-25 124,-64 193,-117 69,-53 136,-114 202,-183 66,-68 127,-142 184,-221 56,-78 102,-157 137,-237 36,-80 59,-157 68,-231 10,-75 0,-141 -28,-198 -29,-58 -81,-106 -154,-144 -74,-38 -176,-59 -306,-64zm-904 1659c8,-1 21,-5 38,-12 -16,5 -26,8 -29,8 -5,3 -8,4 -9,4z"/>
  <path class="fil4" d="M5264 2293c89,4 152,23 188,57 37,34 52,77 48,130 -4,52 -25,111 -61,175 -37,64 -84,129 -142,194 -37,41 -75,75 -115,103 -40,28 -79,51 -117,68 -38,19 -74,32 -108,40 -34,8 -64,14 -89,18 -6,71 1,129 23,177 22,47 59,72 111,74 48,3 96,-9 145,-34 50,-24 97,-56 143,-95 47,-39 91,-82 131,-129 41,-46 77,-90 108,-132 31,-41 56,-77 77,-107 20,-31 33,-48 38,-53 9,-8 18,-11 27,-11 9,0 17,3 23,7 6,5 10,11 12,18 3,8 1,14 -4,18 -11,13 -27,37 -49,71 -22,34 -50,74 -82,118 -33,45 -71,91 -113,140 -43,48 -90,92 -141,131 -52,40 -108,73 -168,98 -61,25 -124,36 -192,32 -67,-3 -123,-15 -166,-37 -44,-22 -78,-48 -104,-78 -26,-30 -45,-61 -56,-92 -12,-31 -19,-56 -21,-77 -15,-103 -7,-204 23,-304 30,-100 75,-189 136,-267 61,-78 134,-140 219,-187 86,-47 178,-69 276,-66zm98 84c-70,18 -134,52 -191,100 -56,48 -106,104 -148,168 -43,64 -77,132 -103,203 -25,71 -42,139 -50,203 59,-27 117,-63 173,-109 57,-46 109,-96 157,-148 48,-54 89,-107 125,-160 35,-54 62,-101 79,-142 18,-42 24,-73 19,-96 -6,-22 -26,-28 -61,-19z"/>
  <path class="fil4" d="M6264 2359c89,7 151,28 186,62 36,35 50,79 45,131 -6,52 -28,110 -67,173 -39,63 -87,126 -146,189 -39,40 -77,73 -118,100 -41,27 -81,48 -119,65 -39,17 -75,29 -109,36 -35,7 -65,13 -90,16 -8,70 -3,129 18,176 20,48 57,74 109,78 48,4 96,-6 146,-30 50,-23 98,-54 145,-91 48,-38 93,-79 135,-125 42,-45 79,-88 111,-129 32,-40 59,-75 80,-105 21,-29 35,-47 40,-51 9,-8 18,-11 27,-11 9,1 16,4 23,8 6,5 10,11 12,19 2,7 0,13 -5,18 -11,12 -28,35 -51,69 -24,34 -52,72 -86,116 -34,44 -73,89 -117,136 -44,47 -92,89 -144,127 -53,39 -110,69 -171,93 -61,23 -125,32 -192,27 -68,-5 -123,-19 -166,-42 -43,-23 -76,-50 -101,-81 -25,-31 -43,-62 -54,-93 -10,-32 -17,-57 -19,-77 -11,-103 -1,-204 33,-303 33,-99 80,-187 143,-263 63,-75 138,-136 225,-181 86,-44 179,-63 277,-57zm96 86c-71,16 -136,47 -193,94 -59,47 -110,101 -154,164 -45,63 -81,129 -108,200 -28,70 -47,137 -57,201 60,-25 119,-60 177,-105 58,-43 111,-91 161,-143 49,-51 92,-104 129,-156 37,-52 65,-99 84,-140 19,-40 25,-72 21,-94 -5,-23 -25,-30 -60,-21z"/>
  <path class="fil4" d="M10208 1071c181,34 308,86 379,155 72,68 98,144 79,226 -24,95 -75,180 -151,252 -77,73 -171,134 -281,182 -111,49 -233,86 -368,112 -135,26 -274,40 -417,42 -142,2 -285,-7 -426,-29 -142,-22 -274,-56 -396,-103 -104,90 -201,184 -293,282 -92,98 -173,199 -245,301 -71,104 -131,208 -179,314 -49,105 -81,209 -97,312 -18,125 -23,237 -12,334 11,98 34,181 68,249 34,68 77,123 131,164 53,41 111,68 174,80 75,14 153,16 235,7 83,-10 163,-33 242,-68 79,-35 153,-83 223,-142 70,-60 131,-132 183,-216 52,-84 92,-180 120,-289 28,-108 38,-230 32,-363 102,95 165,193 187,294 21,101 14,199 -24,292 -38,93 -100,180 -186,260 -86,80 -187,146 -302,198 -114,52 -237,88 -368,106 -131,18 -259,12 -386,-18 -91,-23 -180,-56 -264,-99 -85,-43 -159,-101 -221,-174 -63,-73 -109,-163 -139,-269 -30,-106 -35,-232 -15,-377 17,-114 49,-229 98,-345 49,-115 111,-229 187,-341 75,-113 162,-222 259,-329 97,-106 203,-206 316,-300 -97,-64 -175,-139 -233,-225 -58,-87 -89,-186 -93,-297 -4,-81 15,-156 56,-226 41,-69 95,-125 162,-169 67,-43 141,-70 223,-80 83,-11 164,4 246,44 -79,21 -145,49 -199,86 -53,37 -94,78 -125,124 -30,45 -51,92 -62,140 -10,48 -13,94 -8,137 10,75 28,143 56,202 28,60 64,113 107,160 137,-106 282,-201 432,-285 151,-84 301,-153 451,-207 149,-54 295,-90 439,-110 144,-20 279,-18 405,6zm126 99c-89,-27 -196,-29 -322,-7 -126,22 -261,64 -406,126 -145,61 -295,138 -449,233 -153,94 -301,199 -444,317 98,48 208,81 328,99 121,18 243,23 368,16 125,-8 247,-26 366,-57 119,-30 226,-69 323,-116 96,-47 177,-102 242,-164 65,-62 106,-129 121,-200 5,-27 10,-53 16,-77 5,-24 5,-46 -1,-67 -5,-20 -18,-39 -39,-56 -21,-18 -55,-33 -103,-47z"/>
  <path class="fil4" d="M10574 2008c21,1 44,7 68,16 24,9 45,21 64,36 20,14 37,31 50,52 14,20 21,41 21,63 0,74 -16,151 -46,229 -30,78 -71,156 -121,233 -51,78 -107,153 -170,226 -63,74 -128,144 -195,211 -67,67 -133,129 -198,187 -65,58 -123,109 -176,153 -34,98 -60,190 -77,274 -17,84 -22,155 -15,212 3,32 10,55 21,68 10,13 21,20 31,22 29,4 64,-4 104,-25 41,-21 82,-48 126,-83 43,-34 86,-73 128,-116 43,-43 83,-85 121,-126 38,-42 70,-79 98,-114 27,-34 46,-61 57,-79 2,-6 8,-9 17,-9 9,1 17,4 24,10 6,6 11,14 13,23 2,10 -1,20 -10,30 -9,12 -29,36 -58,73 -28,37 -63,78 -103,124 -41,45 -86,93 -136,142 -49,49 -102,93 -157,131 -55,38 -111,67 -168,88 -57,21 -112,25 -166,13 -33,-9 -70,-28 -108,-60 -39,-31 -66,-82 -81,-152 -21,-95 -18,-207 9,-337 27,-130 68,-265 125,-404 57,-139 124,-275 204,-410 79,-134 160,-254 245,-360 84,-106 167,-191 247,-254 81,-63 151,-92 212,-87zm104 165c-57,15 -120,58 -187,130 -68,72 -137,160 -205,265 -70,105 -136,220 -200,346 -64,125 -120,250 -167,372 134,-110 246,-217 337,-320 90,-104 166,-202 225,-294 60,-92 106,-176 139,-254 33,-78 59,-145 79,-202 9,-25 10,-40 2,-42 -7,-3 -15,-3 -23,-1z"/>
  <path class="fil4" d="M11199 3116c89,6 151,25 188,60 35,34 51,77 46,130 -5,52 -26,110 -63,174 -38,64 -86,128 -144,192 -37,40 -75,74 -116,102 -40,27 -79,49 -118,67 -38,18 -74,30 -108,38 -34,8 -64,14 -89,17 -7,70 0,129 21,177 21,47 58,72 110,76 48,2 96,-8 145,-33 50,-24 98,-56 145,-94 46,-38 91,-81 132,-127 42,-46 78,-90 109,-131 31,-41 57,-76 78,-106 21,-31 34,-48 39,-52 8,-8 18,-12 27,-11 9,0 16,3 23,7 6,5 10,11 12,18 2,8 1,14 -5,19 -10,12 -27,35 -50,69 -22,35 -50,74 -83,118 -33,44 -71,90 -115,138 -43,48 -90,91 -142,130 -52,39 -108,71 -169,95 -61,25 -125,35 -192,31 -67,-4 -122,-17 -166,-39 -43,-23 -77,-49 -103,-79 -25,-30 -44,-61 -55,-93 -11,-31 -18,-56 -20,-76 -14,-103 -5,-204 26,-304 32,-100 78,-188 140,-265 61,-77 135,-139 221,-185 86,-46 178,-67 276,-63zm97 85c-70,17 -134,50 -191,98 -57,47 -108,103 -151,166 -43,64 -78,131 -104,202 -27,71 -44,138 -53,202 59,-26 117,-62 174,-107 57,-45 110,-94 158,-147 49,-52 91,-105 127,-158 36,-53 63,-100 82,-141 17,-41 24,-73 19,-95 -6,-23 -26,-29 -61,-20z"/>
  <path class="fil4" d="M12831 3066c-48,24 -89,69 -124,137 -35,68 -66,145 -95,231 -29,87 -56,176 -82,269 -27,93 -57,176 -89,248 -18,46 -24,86 -19,120 5,35 14,53 28,56 18,2 41,-6 68,-26 28,-20 59,-45 92,-78 33,-32 67,-69 102,-111 35,-43 68,-85 98,-129 31,-44 59,-85 84,-126 25,-40 45,-75 58,-105 6,-15 14,-24 23,-27 10,-3 19,-3 28,1 8,4 14,10 19,19 5,8 5,16 0,23 -26,63 -65,132 -117,209 -51,77 -108,149 -170,218 -63,68 -128,126 -197,174 -68,48 -133,74 -194,77 -37,5 -71,-8 -101,-40 -29,-31 -47,-81 -52,-150 -18,25 -39,50 -63,75 -23,24 -49,45 -78,64 -29,19 -59,34 -90,47 -32,12 -65,18 -100,16 -43,1 -80,-4 -112,-14 -31,-10 -58,-23 -80,-39 -21,-17 -38,-35 -52,-55 -13,-20 -24,-39 -31,-59 -17,-42 -26,-95 -27,-160 -1,-64 6,-131 21,-202 15,-71 38,-142 71,-214 32,-72 74,-136 125,-193 50,-57 111,-104 180,-141 70,-36 151,-56 244,-59 57,0 103,21 139,62 35,42 55,89 61,143 53,-95 114,-161 182,-198 68,-37 151,-58 250,-63zm-855 1087c30,0 56,-10 80,-29 24,-19 45,-42 64,-70 20,-27 36,-55 50,-84 13,-29 24,-53 33,-73 2,-17 6,-34 10,-51 4,-18 10,-37 17,-57 34,-129 69,-236 104,-324 4,-27 5,-56 5,-88 -1,-32 -5,-62 -11,-88 -6,-28 -16,-49 -29,-66 -13,-16 -32,-23 -57,-21 -42,8 -86,36 -131,85 -44,49 -85,109 -124,179 -38,71 -71,146 -97,227 -27,80 -43,154 -48,222 -6,68 1,124 21,169 19,46 57,69 113,69z"/>
  <path class="fil4" d="M13796 2960c26,-3 52,-1 79,8 26,10 49,25 67,45 19,21 34,46 44,75 10,29 13,62 7,100 -2,10 -7,36 -16,78 -8,42 -18,93 -27,151 -10,58 -18,119 -27,185 -8,65 -13,125 -14,179 -1,54 3,98 12,132 10,34 26,48 51,45 18,-3 39,-15 63,-37 24,-22 49,-51 76,-85 26,-35 52,-74 78,-116 27,-42 51,-85 73,-127 23,-43 42,-84 58,-123 16,-39 27,-72 35,-100 1,-6 5,-13 15,-18 9,-6 17,-9 26,-9 8,-1 15,2 22,8 7,5 9,16 6,31 0,2 -6,20 -19,53 -13,34 -32,76 -55,126 -23,50 -51,104 -84,162 -33,59 -70,113 -110,164 -41,51 -84,95 -130,130 -46,36 -95,56 -146,61 -57,5 -103,-6 -136,-35 -33,-28 -58,-66 -75,-115 -16,-48 -25,-104 -27,-168 -1,-63 1,-129 7,-196 6,-66 13,-131 23,-195 9,-64 18,-120 26,-168 7,-47 12,-84 13,-110 1,-26 -5,-36 -17,-29 -36,24 -78,69 -124,135 -47,66 -93,147 -137,243 -45,96 -85,203 -119,320 -35,118 -57,240 -68,366 8,19 20,33 36,42 -19,6 -46,1 -80,-16 -34,-17 -68,-42 -102,-74 -34,-32 -64,-68 -89,-109 -25,-40 -37,-80 -34,-120 1,-55 9,-123 24,-201 15,-79 27,-158 38,-236 11,-78 14,-150 10,-215 -4,-65 -25,-110 -64,-136 17,-8 43,-3 78,14 35,17 70,42 105,74 35,32 65,69 91,109 26,40 39,80 38,120 -2,30 -6,66 -12,107 -7,41 -14,84 -22,129 -8,45 -16,92 -25,140 -8,48 -15,94 -18,137 11,-49 26,-106 45,-171 20,-65 43,-130 69,-196 27,-67 56,-132 89,-196 33,-64 69,-123 107,-175 39,-53 81,-96 126,-130 45,-34 91,-55 140,-63z"/>
  <path class="fil5" d="M2013 5607c0,158 -61,275 -181,350 -69,43 -181,64 -337,64l-478 0 0 -819 527 0c142,0 253,32 334,95 90,70 135,173 135,310zm-197 -4c0,-170 -90,-255 -270,-255l-338 0 0 519 246 0c116,0 201,-15 254,-44 72,-41 108,-114 108,-220z"/>
  <polygon class="fil5" points="2976,6021 3167,6021 3167,5202 2976,5202 "/>
  <path class="fil5" d="M5089 5827c0,77 -15,128 -44,154 -30,27 -83,40 -161,40l-506 0c-84,0 -139,-15 -165,-44 -27,-30 -40,-87 -40,-172l168 -35 0 97 580 0 0 -187 -511 0c-78,0 -131,-14 -160,-40 -29,-26 -44,-78 -44,-154l0 -90c0,-77 15,-128 44,-154 29,-27 82,-40 160,-40l465 0c78,0 132,13 160,40 29,27 43,79 43,157l-168 39 0 -93 -537 0 0 176 511 0c78,0 131,13 161,40 29,26 44,77 44,154l0 112z"/>
  <path class="fil5" d="M6985 5543c0,106 -62,159 -185,159l-514 0 0 319 -187 0 0 -819 701 0c123,0 185,53 185,159l0 182zm-185 -47l0 -88c0,-27 -8,-45 -23,-54 -12,-7 -33,-11 -62,-11l-429 0 0 218 429 0c29,0 50,-4 62,-12 15,-8 23,-26 23,-53z"/>
  <path class="fil5" d="M8885 5827c0,77 -15,128 -44,154 -29,27 -82,40 -159,40l-604 0c-77,0 -130,-13 -159,-40 -29,-26 -44,-77 -44,-154l0 -431c0,-77 15,-128 44,-154 29,-27 82,-40 159,-40l604 0c77,0 130,13 159,40 29,26 44,77 44,154l0 431zm-191 40l0 -519 -628 0 0 519 628 0z"/>
  <path class="fil5" d="M10790 5827c0,77 -15,128 -45,154 -29,27 -83,40 -160,40l-506 0c-84,0 -139,-15 -165,-44 -27,-30 -40,-87 -40,-172l168 -35 0 97 580 0 0 -187 -512 0c-77,0 -130,-14 -159,-40 -29,-26 -44,-78 -44,-154l0 -90c0,-77 15,-128 44,-154 29,-27 82,-40 159,-40l465 0c79,0 132,13 161,40 28,27 43,79 43,157l-169 39 0 -93 -536 0 0 176 511 0c77,0 131,13 160,40 30,26 45,77 45,154l0 112z"/>
  <path class="fil5" d="M12730 6021l-215 0 -98 -179 -519 0 -95 179 -191 0 464 -819 184 0 470 819zm-392 -327l-177 -333 -182 333 359 0z"/>
  <polygon class="fil5" points="14412,6021 13608,6021 13608,5202 13798,5202 13798,5867 14412,5867 "/>
 </g>
</svg>
